# xmcd
#
# Track frame offsets:
#	150
#	13237
#	32982
#	50235
#	64300
#	76145
#	88530
#	104355
#	117750
#	131782
#	145295
#	161455
#	179465
#	195697
#	210307
#	222465
#	239915
#	257950
#	295277
#
# Disc length: 3970
#
# Revision: 1
# Processed by: cddbd v1.5.1PL0 Copyright (c) Steve Scherf et al.
# Submitted via: CDex 1.50beta9
# Normalized: r0:TDELIM( - )
#
DISCID=2c0f8013
DTITLE=Various Artist - CDX Volume 63 - Aug 1993
DYEAR=1993
DGENRE=Country
TTITLE0=Randy Travis - Cowboy Boogie
TTITLE1=Reba McEntire and Linda Davis - Does He Love You
TTITLE2=Pam Tillis - Do You Know Where Your Man Is
TTITLE3=George Strait - Easy Come, Easy Go
TTITLE4=Chris Ledoux - Every Time I Roll The Dice
TTITLE5=John Anderson - I Fell In The Water
TTITLE6=John Berry - Kiss Me In The Car
TTITLE7=Lari White - Lay Around and Love On You
TTITLE8=Kathy Mattea - Listen To The Radio
TTITLE9=Clinton Gregory - Master of Illusion
TTITLE10=Sammy Kershaw - Queen of My Double Wide Trailer
TTITLE11=Brooks and Dunn - She Used To Be Mine
TTITLE12=Billy Burnette - The Bigger The Love
TTITLE13=Mary Chapin Carpenter - The Bug
TTITLE14=Roger Ballard - Two Steps In The Right Direction
TTITLE15=Socks Clinton aka Buzz Cason - Rockin' Socks
TTITLE16=Bellamy Brothers - Reggae Cowboy
TTITLE17=Johnny Rodriguez - Interview
TTITLE18=Mark Chesnutt - Station Liners
EXTD=YEAR: 1993
EXTT0=
EXTT1=
EXTT2=
EXTT3=
EXTT4=
EXTT5=
EXTT6=
EXTT7=
EXTT8=
EXTT9=
EXTT10=
EXTT11=
EXTT12=
EXTT13=
EXTT14=
EXTT15=
EXTT16=
EXTT17=
EXTT18=
PLAYORDER=
